<svg xmlns="http://www.w3.org/2000/svg" width="66" height="66" viewBox="0 0 66 66">
  <g id="添加照片" transform="translate(-401 -922)">
    <g id="矩形_138" data-name="矩形 138" transform="translate(401 922)" fill="#fff" stroke="#a8a8a8" stroke-width="1" stroke-dasharray="3 3">
      <rect width="66" height="66" rx="4" stroke="none"/>
      <rect x="0.5" y="0.5" width="65" height="65" rx="3.5" fill="none"/>
    </g>
    <g id="组_1310" data-name="组 1310" transform="translate(419 942)">
      <path id="路径_10410" data-name="路径 10410" d="M799.982,154.76h-5.8a.58.58,0,1,1,0-1.16h5.8a.58.58,0,1,1,0,1.16Z" transform="translate(-770.562 -150.699)"/>
      <path id="路径_10411" data-name="路径 10411" d="M163.087,64.562q-.557,0-.557-.58v-5.8q0-.58.557-.58t.557.58v5.8Q163.645,64.562,163.087,64.562ZM143.214,71.33a2.516,2.516,0,1,1,2.414-2.514A2.511,2.511,0,0,1,143.214,71.33Zm0-3.868a1.355,1.355,0,1,0,1.3,1.354A1.3,1.3,0,0,0,143.214,67.463Z" transform="translate(-136.545 -57.6)"/>
      <path id="路径_10412" data-name="路径 10412" d="M22.8,176.7H4.3A4.19,4.19,0,0,1,0,172.483V157.816A4.19,4.19,0,0,1,4.3,153.6H20.558a.55.55,0,1,1,0,1.1H4.3a3.244,3.244,0,0,0-3.177,3.117v14.666A3.244,3.244,0,0,0,4.3,175.6H22.8a3.244,3.244,0,0,0,3.177-3.117V160.75c-.374-.367-1.682-1.467-4.3-.55-2.243.733-2.8,2.567-3.364,4.583-.374,1.467-.934,2.75-2.243,3.3-.934.367-2.43.183-4.3-.733-3.364-1.65-8.6,3.483-8.784,3.483a.577.577,0,0,1-.748,0,.55.55,0,0,1,0-.733c.187-.183,5.981-5.683,9.905-3.85,1.682.917,2.8,1.1,3.551.917.748-.367,1.121-1.467,1.5-2.75.561-2.017,1.308-4.4,4.112-5.316,3.925-1.283,5.607,1.1,5.607,1.283l.187.367v11.733A4.19,4.19,0,0,1,22.8,176.7Z" transform="translate(0 -150.699)"/>
    </g>
  </g>
</svg>
