<svg xmlns="http://www.w3.org/2000/svg" width="18" height="18" viewBox="0 0 18 18">
  <g id="删除照片" transform="translate(-641 -897)">
    <path id="路径_19" data-name="路径 19" d="M133.516,127.543a9,9,0,1,0-8.819,9.177A9,9,0,0,0,133.516,127.543Z" transform="translate(525.482 778.278)" fill="#fff"/>
    <path id="路径_10413" data-name="路径 10413" d="M133.516,127.543a9,9,0,1,0-8.819,9.177A9,9,0,0,0,133.516,127.543Zm-2.941.171a.468.468,0,0,1-.467.467H119.062a.467.467,0,0,1,0-.935h11.046A.468.468,0,0,1,130.576,127.714Z" transform="translate(525.482 778.278)" fill="red"/>
  </g>
</svg>
