<svg xmlns="http://www.w3.org/2000/svg" width="26" height="26" viewBox="0 0 26 26">
  <path id="常用语言" d="M13,0V1.528A11.421,11.421,0,0,1,24.472,12.9a11.256,11.256,0,0,1-2.4,6.95c-.424.545-.447,1.077-.352,2.77l0,.057a10.058,10.058,0,0,1,.024,1.361,1.71,1.71,0,0,1-.062.378c-.012.033-.01.029.02.007-.113.086-.645-.012-1.841-.433l-.01,0a10.82,10.82,0,0,0-1.541-.465l-.042-.007a2.419,2.419,0,0,0-1.291.045A11.5,11.5,0,0,1,1.529,12.895,11.419,11.419,0,0,1,13,1.528V0a12.9,12.9,0,1,0,0,25.79,13.009,13.009,0,0,0,4.505-.8,1.167,1.167,0,0,1,.5.024l.031.005a9.875,9.875,0,0,1,1.315.406l.01,0c1.855.651,2.532.778,3.279.2.671-.514.72-1.146.614-3.041l0-.058a5.26,5.26,0,0,1,.031-1.744A12.776,12.776,0,0,0,26,12.9,12.95,12.95,0,0,0,13,0Zm2.86,16.64h-5.72a.78.78,0,1,0,0,1.56h5.72a.78.78,0,1,0,0-1.56Zm0-4.16h-5.72a.78.78,0,1,0,0,1.56h5.72a.78.78,0,1,0,0-1.56Zm0-4.16h-5.72a.78.78,0,1,0,0,1.56h5.72a.78.78,0,1,0,0-1.56Z" transform="translate(-0.001)" fill="#666"/>
</svg>
