<svg xmlns="http://www.w3.org/2000/svg" width="32" height="30" viewBox="0 0 32 30">
  <g id="筛选" transform="translate(0 -22.3)">
    <path id="路径_10395" data-name="路径 10395" d="M0,23.17a.857.857,0,0,0,.228.582L10.492,34.064V51.43a.875.875,0,0,0,.524.8.961.961,0,0,0,.356.074.891.891,0,0,0,.6-.233l4.99-4.485a.866.866,0,0,0,.287-.64V34.014L27.6,23.758a.864.864,0,0,0,.156-.937.893.893,0,0,0-.811-.521H.889a.9.9,0,0,0-.815.518A.872.872,0,0,0,0,23.17ZM15.479,33.681V46.562l-3.214,2.892V33.73a.886.886,0,0,0-.225-.585l-9.156-9.1H24.941L15.71,33.092A.842.842,0,0,0,15.479,33.681Z" transform="translate(0 0)" fill="#fff"/>
    <path id="路径_10396" data-name="路径 10396" d="M684.242,430.868a.831.831,0,0,1-.783.871h-9.476a.874.874,0,0,1,0-1.739h9.476A.831.831,0,0,1,684.242,430.868Zm0,5.235a.831.831,0,0,1-.783.871h-9.476a.874.874,0,0,1,0-1.739h9.476A.83.83,0,0,1,684.242,436.1Zm0,5.232a.828.828,0,0,1-.783.868h-9.476a.872.872,0,0,1,0-1.736h9.476A.83.83,0,0,1,684.242,441.334Z" transform="translate(-652.242 -395.426)" fill="#fff"/>
  </g>
</svg>
