<svg xmlns="http://www.w3.org/2000/svg" width="60" height="60" viewBox="0 0 60 60">
  <g id="交易管理" transform="translate(5.616 5.781)">
    <rect id="矩形_86" data-name="矩形 86" width="60" height="60" transform="translate(-5.616 -5.781)" fill="#fff" opacity="0"/>
    <path id="路径_10389" data-name="路径 10389" d="M160.248,321.9H132.3a4.181,4.181,0,0,0-4.1,4.006v20.076a4.012,4.012,0,0,0,4.084,4.006h27.946a4.177,4.177,0,0,0,4.084-4.006V325.906A4.121,4.121,0,0,0,160.248,321.9Z" transform="translate(-121.778 -305.612)" fill="#1962df"/>
    <path id="路径_10390" data-name="路径 10390" d="M253.959,98.419H232.117A1.128,1.128,0,0,0,231,99.551v.842a1.128,1.128,0,0,0,1.117,1.132h21.843a1.128,1.128,0,0,0,1.117-1.132v-.842A1.125,1.125,0,0,0,253.959,98.419ZM251,93.5H235.077a1.128,1.128,0,0,0-1.117,1.132v.842a1.128,1.128,0,0,0,1.117,1.132H251a1.128,1.128,0,0,0,1.117-1.132v-.842A1.125,1.125,0,0,0,251,93.5Z" transform="translate(-218.56 -89.25)" fill="#1962df"/>
    <g id="椭圆_254" data-name="椭圆 254" transform="translate(16.384 22.219)" fill="none" stroke="#669bf6" stroke-width="2">
      <circle cx="8" cy="8" r="8" stroke="none"/>
      <circle cx="8" cy="8" r="7" fill="none"/>
    </g>
  </g>
</svg>
